<svg width="129" height="28" viewBox="0 0 129 28" fill="none" xmlns="http://www.w3.org/2000/svg">
  <!-- Icon/Logo symbol (keeping the original green icon) -->
  <path fill-rule="evenodd" clip-rule="evenodd" d="M10.7512 22.1877C10.8083 22.2882 10.8977 22.3672 11.0052 22.412C11.0704 22.4381 11.1399 22.4522 11.2102 22.4535C11.2927 22.4503 11.3733 22.428 11.4454 22.3883C11.5175 22.3486 11.5792 22.2927 11.6254 22.2251L18.4573 13.4012C18.5125 13.3275 18.547 13.2406 18.5571 13.1494C18.5673 13.0582 18.5528 12.966 18.5151 12.8822C18.4718 12.7948 18.4045 12.7212 18.3209 12.6698C18.2372 12.6184 18.1407 12.5913 18.0422 12.5915H15.5459L18.86 1.0191C23.787 3.07105 27.2507 7.93235 27.2507 13.6026C27.2507 21.1277 21.1504 27.228 13.6254 27.228C6.10028 27.228 0 21.1277 0 13.6026C0 6.34388 5.67613 0.410858 12.832 0L8.58249 15.0674C8.56395 15.1447 8.56365 15.2253 8.58162 15.3028C8.59958 15.3803 8.63534 15.4527 8.68612 15.5144C8.7369 15.5761 8.80136 15.6254 8.87451 15.6586C8.94766 15.6918 9.02756 15.708 9.10803 15.7058H11.6464L10.6899 21.8566C10.6725 21.9706 10.6941 22.0871 10.7512 22.1877Z" fill="#83EA00"/>
  <!-- TymG text (light color for dark mode) -->
  <text x="36" y="20" font-family="Arial, Helvetica, sans-serif" font-size="18" font-weight="bold" fill="#F4F5F8" letter-spacing="0.5px">TymG</text>
</svg>
